<svg width="123" height="120" viewBox="0 0 123 120" fill="none" xmlns="http://www.w3.org/2000/svg">
<path d="M68.4969 27.104V26.24H76.2089V27.104L74.4489 27.264C74.1076 27.3067 73.9049 27.392 73.8409 27.52C73.7769 27.648 73.7449 28.0853 73.7449 28.832V45.408C73.7449 46.1547 73.7769 46.592 73.8409 46.72C73.9049 46.848 74.1076 46.9333 74.4489 46.976L76.2089 47.168V48H68.4969V47.168L70.2569 46.976C70.5983 46.9333 70.8009 46.848 70.8649 46.72C70.9289 46.592 70.9609 46.1547 70.9609 45.408V28.832C70.9609 28.0853 70.9289 27.648 70.8649 27.52C70.8009 27.392 70.5983 27.3067 70.2569 27.264L68.4969 27.104ZM88.4302 48.32C85.7209 48.32 83.6515 47.4133 82.2222 45.6C80.8142 43.7867 80.1102 41.3547 80.1102 38.304V35.904C80.1102 33.8987 80.4089 32.1493 81.0062 30.656C81.6249 29.1627 82.5315 28 83.7262 27.168C84.9209 26.336 86.3822 25.92 88.1102 25.92C89.7102 25.92 91.0329 26.24 92.0782 26.88C93.1235 27.4987 93.8809 28.32 94.3502 29.344C94.8195 30.3467 94.9689 31.4453 94.7982 32.64L92.0462 33.312C92.2809 31.264 92.0462 29.696 91.3422 28.608C90.6382 27.4987 89.5609 26.944 88.1102 26.944C86.4889 26.944 85.2515 27.52 84.3982 28.672C83.5662 29.824 83.1502 31.7013 83.1502 34.304V39.904C83.1502 42.528 83.5982 44.416 84.4942 45.568C85.3902 46.72 86.7235 47.296 88.4942 47.296C89.1982 47.296 89.8702 47.1787 90.5102 46.944C91.1502 46.688 91.6942 46.2613 92.1422 45.664C92.5902 45.0667 92.8675 44.2347 92.9742 43.168L94.9582 43.68C94.4889 45.3867 93.6569 46.592 92.4622 47.296C91.2889 47.9787 89.9449 48.32 88.4302 48.32ZM98.0282 27.072V26.24H105.74V27.072L103.98 27.264C103.639 27.2853 103.436 27.3707 103.372 27.52C103.308 27.648 103.276 28.0853 103.276 28.832V38.24L111.276 28.64C111.81 28.0213 112.076 27.648 112.076 27.52C112.098 27.3707 111.927 27.2853 111.564 27.264L109.932 27.072V26.24H116.012V27.072L114.38 27.264C114.167 27.2853 113.996 27.328 113.868 27.392C113.74 27.4347 113.591 27.552 113.42 27.744C113.271 27.9147 113.015 28.2133 112.652 28.64L107.66 34.656L113.74 45.408C114.018 45.8987 114.22 46.2507 114.348 46.464C114.498 46.6773 114.647 46.816 114.796 46.88C114.946 46.9227 115.148 46.9547 115.404 46.976L116.94 47.168V48H111.948L105.804 36.896L103.276 39.904V45.408C103.276 46.1547 103.308 46.592 103.372 46.72C103.436 46.848 103.639 46.9333 103.98 46.976L105.74 47.168V48H98.0282V47.168L99.7882 46.976C100.13 46.9333 100.332 46.848 100.396 46.72C100.46 46.592 100.492 46.1547 100.492 45.408V28.832C100.492 28.0853 100.46 27.648 100.396 27.52C100.332 27.3707 100.13 27.2853 99.7882 27.264L98.0282 27.072Z" fill="white"/>
<path d="M53.6508 76.1573V76.9893H47.5708V76.1573L49.2988 75.9653C49.5334 75.9439 49.7041 75.9119 49.8108 75.8693C49.9174 75.8053 50.0134 75.6773 50.0988 75.4853C50.2054 75.2719 50.3334 74.9093 50.4828 74.3973L56.6588 55.2293H58.6748L64.9148 74.3973C65.0641 74.9093 65.1814 75.2719 65.2668 75.4853C65.3734 75.6773 65.4801 75.8053 65.5868 75.8693C65.6934 75.9119 65.8534 75.9439 66.0668 75.9653L67.8268 76.1573V76.9893H60.0508V76.1573L61.8108 75.9653C62.1521 75.9226 62.3334 75.8373 62.3548 75.7093C62.3974 75.5599 62.3014 75.1226 62.0668 74.3973L60.7548 70.3013H52.9468L51.6348 74.3973C51.4001 75.1226 51.2934 75.5599 51.3148 75.7093C51.3574 75.8373 51.5494 75.9226 51.8908 75.9653L53.6508 76.1573ZM53.2668 69.2773H60.4348L56.8508 58.1413L53.2668 69.2773ZM66.5508 55.2293H83.5748V60.4453H82.7428L81.8148 57.0853C81.7508 56.8293 81.6761 56.6479 81.5908 56.5413C81.5268 56.4133 81.3881 56.3386 81.1748 56.3173C80.9614 56.2746 80.5988 56.2533 80.0868 56.2533H76.4708V74.3973C76.4708 75.1439 76.5028 75.5813 76.5668 75.7093C76.6308 75.8373 76.8334 75.9226 77.1748 75.9653L78.9348 76.1573V76.9893H71.2228V76.1573L72.9828 75.9653C73.3241 75.9226 73.5268 75.8373 73.5908 75.7093C73.6548 75.5813 73.6868 75.1439 73.6868 74.3973V56.2533H70.0388C69.5481 56.2533 69.1854 56.2746 68.9508 56.3173C68.7374 56.3386 68.5881 56.4133 68.5028 56.5413C68.4388 56.6479 68.3748 56.8293 68.3108 57.0853L67.3828 60.4453H66.5508V55.2293Z" fill="white"/>
<path d="M63.944 95.6395V98.0395C63.944 101.154 63.2293 103.607 61.8 105.399C60.3707 107.17 58.3227 108.055 55.656 108.055C52.968 108.055 50.9093 107.17 49.48 105.399C48.072 103.607 47.368 101.154 47.368 98.0395V95.6395C47.368 92.5461 48.072 90.1141 49.48 88.3435C50.9093 86.5515 52.968 85.6555 55.656 85.6555C58.3227 85.6555 60.3707 86.5515 61.8 88.3435C63.2293 90.1141 63.944 92.5461 63.944 95.6395ZM60.904 94.0395C60.904 91.3728 60.456 89.4848 59.56 88.3755C58.6853 87.2448 57.384 86.6795 55.656 86.6795C53.928 86.6795 52.616 87.2448 51.72 88.3755C50.8453 89.4848 50.408 91.3728 50.408 94.0395V99.6395C50.408 102.306 50.8453 104.205 51.72 105.335C52.616 106.466 53.928 107.031 55.656 107.031C57.384 107.031 58.6853 106.466 59.56 105.335C60.456 104.205 60.904 102.306 60.904 99.6395V94.0395ZM85.2565 95.6395V98.0395C85.2565 101.154 84.5418 103.607 83.1125 105.399C81.6832 107.17 79.6352 108.055 76.9685 108.055C74.2805 108.055 72.2218 107.17 70.7925 105.399C69.3845 103.607 68.6805 101.154 68.6805 98.0395V95.6395C68.6805 92.5461 69.3845 90.1141 70.7925 88.3435C72.2218 86.5515 74.2805 85.6555 76.9685 85.6555C79.6352 85.6555 81.6832 86.5515 83.1125 88.3435C84.5418 90.1141 85.2565 92.5461 85.2565 95.6395ZM82.2165 94.0395C82.2165 91.3728 81.7685 89.4848 80.8725 88.3755C79.9978 87.2448 78.6965 86.6795 76.9685 86.6795C75.2405 86.6795 73.9285 87.2448 73.0325 88.3755C72.1578 89.4848 71.7205 91.3728 71.7205 94.0395V99.6395C71.7205 102.306 72.1578 104.205 73.0325 105.335C73.9285 106.466 75.2405 107.031 76.9685 107.031C78.6965 107.031 79.9978 106.466 80.8725 105.335C81.7685 104.205 82.2165 102.306 82.2165 99.6395V94.0395Z" fill="white"/>
<path d="M5.3125 35.5937V27H65.3125V35.5937H40.1563V107H30.4688V35.5937H5.3125Z" fill="white"/>
</svg>
